<mxfile host="app.diagrams.net" agent="Mozilla/5.0 (Windows NT 10.0; Win64; x64) AppleWebKit/537.36 (KHTML, like Gecko) Chrome/127.0.0.0 Safari/537.36 OPR/113.0.0.0" version="24.7.17">
  <diagram name="Page-1" id="SMzT8aU0rKMR-F5Ezr_2">
    <mxGraphModel dx="1261" dy="634" grid="1" gridSize="10" guides="1" tooltips="1" connect="1" arrows="1" fold="1" page="1" pageScale="1" pageWidth="850" pageHeight="1100" math="0" shadow="0">
      <root>
        <mxCell id="0" />
        <mxCell id="1" parent="0" />
        <mxCell id="r40yJFsu5M7bjOMTCgPo-2" value="Loading" style="rounded=0;whiteSpace=wrap;html=1;fillColor=#e1d5e7;strokeColor=#9673a6;" vertex="1" parent="1">
          <mxGeometry x="157.5" y="240" width="125" height="60" as="geometry" />
        </mxCell>
        <mxCell id="r40yJFsu5M7bjOMTCgPo-4" style="edgeStyle=orthogonalEdgeStyle;rounded=0;orthogonalLoop=1;jettySize=auto;html=1;fillColor=#e1d5e7;strokeColor=#9673a6;" edge="1" parent="1" source="r40yJFsu5M7bjOMTCgPo-3" target="r40yJFsu5M7bjOMTCgPo-2">
          <mxGeometry relative="1" as="geometry" />
        </mxCell>
        <mxCell id="r40yJFsu5M7bjOMTCgPo-3" value="START" style="rounded=1;whiteSpace=wrap;html=1;fillColor=#e1d5e7;strokeColor=#9673a6;" vertex="1" parent="1">
          <mxGeometry x="160" y="100" width="120" height="60" as="geometry" />
        </mxCell>
        <mxCell id="r40yJFsu5M7bjOMTCgPo-11" value="Sorting" style="rounded=0;whiteSpace=wrap;html=1;fillColor=#e1d5e7;strokeColor=#9673a6;" vertex="1" parent="1">
          <mxGeometry x="157.5" y="380" width="125" height="60" as="geometry" />
        </mxCell>
        <mxCell id="r40yJFsu5M7bjOMTCgPo-12" style="edgeStyle=orthogonalEdgeStyle;rounded=0;orthogonalLoop=1;jettySize=auto;html=1;fillColor=#e1d5e7;strokeColor=#9673a6;" edge="1" parent="1" target="r40yJFsu5M7bjOMTCgPo-11">
          <mxGeometry relative="1" as="geometry">
            <mxPoint x="220" y="300" as="sourcePoint" />
          </mxGeometry>
        </mxCell>
        <mxCell id="r40yJFsu5M7bjOMTCgPo-13" value="Storing" style="rounded=0;whiteSpace=wrap;html=1;fillColor=#e1d5e7;strokeColor=#9673a6;" vertex="1" parent="1">
          <mxGeometry x="157.5" y="520" width="125" height="60" as="geometry" />
        </mxCell>
        <mxCell id="r40yJFsu5M7bjOMTCgPo-14" style="edgeStyle=orthogonalEdgeStyle;rounded=0;orthogonalLoop=1;jettySize=auto;html=1;fillColor=#e1d5e7;strokeColor=#9673a6;" edge="1" parent="1" target="r40yJFsu5M7bjOMTCgPo-13">
          <mxGeometry relative="1" as="geometry">
            <mxPoint x="220" y="440" as="sourcePoint" />
          </mxGeometry>
        </mxCell>
        <mxCell id="r40yJFsu5M7bjOMTCgPo-15" value="END" style="rounded=1;whiteSpace=wrap;html=1;fillColor=#e1d5e7;strokeColor=#9673a6;" vertex="1" parent="1">
          <mxGeometry x="160" y="660" width="120" height="60" as="geometry" />
        </mxCell>
        <mxCell id="r40yJFsu5M7bjOMTCgPo-16" style="edgeStyle=orthogonalEdgeStyle;rounded=0;orthogonalLoop=1;jettySize=auto;html=1;fillColor=#e1d5e7;strokeColor=#9673a6;" edge="1" parent="1">
          <mxGeometry relative="1" as="geometry">
            <mxPoint x="219.5" y="580" as="sourcePoint" />
            <mxPoint x="219.5" y="660" as="targetPoint" />
          </mxGeometry>
        </mxCell>
      </root>
    </mxGraphModel>
  </diagram>
</mxfile>
